Patient4_TMGait_0pt8_01_right_34_EMG.mot
version=1
nRows=16
nColumns=33
inDegrees=no
endheader
time	1LAddLong	2LGlutMax	3LGlutMed	4LIliopsoas	5LSemiMemb	6LBicFemLong	7LRecFem	8LVastMed	9LVastLat	10LGasMed	11LTibAnt	12lTibPost	13LPeroneusLong	14LSol	15LExtDigLong	16LFlexDigLong	17RAddLong	18RGlutMax	19RGlutMed	20RIliopsoas	21RSemiMemb	22RBicFemLong	23RRecFem	24RVastMed	25RVastLat	26RGasMed	27RTibAnt	28RTibPost	29RPeroneusLong	30RSol	31RExtDigLong	32RFlexDigLong
38.462	-0.009308	0.10757	-0.1619	-0.016632	-0.016327	0.039673	0.26611	0.017853	-0.020294	0.030212	0.11429	-0.014496	-0.11978	0.048676	0.11414	-0.009613	0.000458	-0.093994	-0.31815	0.004883	0.042114	0.22934	0.19806	-0.048981	-0.2269	0.001068	0.10574	-0.084991	-0.043182	-0.029602	0.000305	-0.027161
38.463	-0.002289	0.073547	-0.10742	-0.021057	-0.009308	0.042877	0.19608	0.011902	-0.003662	0.043335	0.23239	-0.025635	-0.13306	0.088654	0.095367	-0.014954	-0.033722	-0.089569	-0.067291	0.010529	0.03006	0.18249	0.21606	-0.29999	-0.035095	0.000458	0.035706	0.00885	0.11017	-0.12817	-0.001221	-0.032196
38.464	0.006714	0.046539	-0.06134	0.027313	-0.012207	0.027466	0.24704	0.007172	0.008545	0.032196	0.24582	-0.018768	-0.10971	0.027313	0.15823	-0.017395	-0.002136	-0.006866	0.3183	-0.025787	-0.039063	0.22995	0.21103	-0.24521	-0.002441	-0.011597	0.051422	0.044708	-0.41977	-0.059814	-0.000153	-0.029144
38.465	0.001373	0.040741	-0.099487	0.02121	-0.004578	0.030975	0.34302	0.01297	0.010834	0.03006	-0.020905	-0.027313	-0.07782	0.045471	0.028534	-0.013428	0.010834	0.037079	0.60196	-0.020752	0.048981	0.051117	-0.027466	-0.43976	-0.02594	-0.024261	0.10605	0.007629	-0.31052	-0.29511	-0.002289	-0.037079
38.466	-0.010071	0.056915	-0.11856	0.012512	0.00351	0.005951	0.4042	0.013733	0.010681	0.030365	-0.14313	-0.021515	-0.049744	0.062408	-0.014343	-0.030365	0.063171	0.13123	0.20783	-0.023804	0.30304	-0.15656	-0.13519	-0.36468	-0.022736	-0.016174	-0.009766	0.006256	1.6292	-0.52399	-0.002136	-0.033875
38.467	-0.014343	0.025177	-0.15305	0.005341	0.00061	-0.005188	0.41168	0.021057	0.018921	0.016785	-0.14862	-0.027313	-0.036774	0.08667	-0.075836	-0.017548	0.092316	0.27039	0.19547	-0.081329	0.37354	-0.34363	0.19196	-0.19119	-0.02182	0.005951	-0.055695	0.009918	1.5129	-0.61005	-0.001984	-0.019379
38.468	-0.014343	0.031738	-0.18097	-0.008392	0.004272	-0.023346	0.43472	0.026855	0.032196	0.009308	-0.077667	-0.027161	-0.051422	0.12268	-0.090027	-0.024414	0.091553	0.38345	0.52567	-0.16251	-0.076599	-0.2066	0.46829	0.045013	0.001526	0.002899	-0.13489	-0.008545	-0.44632	-0.22385	-0.002747	-0.015717
38.469	-0.022278	0.007629	-0.19577	-0.004578	0.005646	-0.053253	0.48737	0.028687	0.029449	0.049133	0.002289	-0.024567	-0.095978	0.061493	-0.027771	-0.039978	-0.029449	0.46799	0.8519	-0.15656	-0.32394	-0.086212	0.33936	0.14984	0.44708	-0.020752	-0.028687	-0.024719	-0.20111	0.31998	-0.006409	-0.014038
38.47	-0.019989	-0.007935	-0.21301	-0.009155	-0.002289	-0.050507	0.48904	0.011444	0.042419	0.030365	0.066986	-0.025482	-0.089874	0.04837	0.022888	-0.022278	-0.13489	0.46173	0.45166	-0.1799	-0.26733	0.070496	0.4158	0.23834	0.59006	0.007477	-0.079651	-0.028381	-0.6694	0.2298	-0.00473	-0.010071
38.471	-0.014648	-0.001068	-0.23743	-0.014343	0.011902	-0.07431	0.48202	0.018311	0.046692	0.031891	0.053558	-0.017853	-0.056152	0.066071	-0.018005	-0.028076	-0.081177	0.34882	0.25421	-0.19608	-0.00061	0.18707	0.56564	0.23407	0.4892	0.013275	-0.078278	-0.028229	0.038757	0.054626	-0.00351	-0.003662
38.472	-0.018005	-0.026245	-0.26977	-0.013428	0.007019	-0.085907	0.46616	0.014648	0.055237	0.042572	-0.19073	-0.020294	-0.059662	0.041046	-0.001373	-0.028839	-0.069885	0.23285	-0.061188	-0.039063	0.37537	0.20599	0.53497	0.25971	0.30197	0.014343	0.07843	-0.035706	-1.2735	-0.021515	-0.002594	-0.007324
38.473	-0.02121	-0.024109	-0.25986	-0.012207	0.009003	-0.087585	0.41931	0.016479	0.06012	0.064087	-0.079803	-0.017242	-0.10101	0.064545	0.05661	-0.027161	-0.048828	0.16922	-0.69626	0.11978	0.52826	0.25116	0.18036	0.20615	0.37857	-0.009918	0.16007	-0.037537	-1.2852	0.12711	-0.000458	-0.001678
38.474	-0.021362	-0.015869	-0.26382	-0.015869	0.015411	-0.083923	0.36148	0.017853	0.060883	0.052185	-0.080109	-0.010681	-0.11047	0.074463	0.072784	-0.02121	-0.021362	0.15228	-1.0173	0.20355	0.34576	0.14343	-0.16022	0.076141	0.29495	-0.005798	0.002594	-0.034027	-0.11063	0.073242	-0.003204	-0.000305
38.475	-0.013428	0.022278	-0.21545	0.02182	0.015564	-0.055389	0.38589	0.011749	0.066528	0.061646	-0.022278	-0.020599	-0.10635	0.076752	0.18494	-0.031128	0.000916	0.22507	-1.1385	0.23636	0.10376	-0.16769	0.32989	0.020142	0.093231	0.008392	-0.19562	-0.010529	1.0738	0.15106	-0.00061	0.005951
38.476	-0.013428	-0.016937	-0.20142	0.027161	0.007629	-0.059967	0.36667	0.013733	0.063934	0.055389	-0.05249	-0.009308	-0.099335	0.10452	0.088501	-0.019531	0.018005	0.34241	-1.6138	0.3746	0.21027	-0.16998	0.6958	0.19226	0.10452	0.012665	-0.18601	-0.021667	0.51239	0.30624	0	0.00946
38.477	-0.005493	0.018616	-0.098419	0.016327	0.0177	-0.042725	0.36072	0.00824	0.082397	0.05249	-0.03952	-0.005951	-0.084991	0.10346	0.00946	-0.019684	0.005951	0.38071	-1.5414	0.27145	0.078125	-0.11704	0.85556	0.13504	0.053711	0.004425	-0.054016	-0.024719	0.028076	0.27283	-0.002899	-0.000305
